<svg height="512" viewBox="0 0 512 512" width="512" xmlns="http://www.w3.org/2000/svg"><g><g fill="#57a4ff"><path d="m496 380a11.984 11.984 0 0 1 -12 12h-456a12 12 0 1 1 0-24h456a12 12 0 0 1 12 12z"/><path d="m280 145.28h-48a225.64 225.64 0 0 1 48 0z"/><path d="m232 120h48v25.28h-48z"/></g><g fill="#004fac"><path d="m487.86 360.38a232.026 232.026 0 0 0 -199.86-222.19v-18.19a8 8 0 0 0 -8-8h-48a8 8 0 0 0 -8 8v18.19a232.026 232.026 0 0 0 -199.86 222.19 20 20 0 0 0 3.86 39.62h456a20 20 0 0 0 3.86-39.62zm-247.86-232.38h32v8.55q-7.95-.54-16-.55t-16 .55zm-136.73 87.26a214.365 214.365 0 0 1 129.49-62.02c.05 0 .09-.01.13-.01a217.717 217.717 0 0 1 46.22 0c.04 0 .08.01.13.01a216.007 216.007 0 0 1 192.6 206.76h-431.68a214.478 214.478 0 0 1 63.11-144.74zm380.73 168.74h-456a4 4 0 0 1 0-8h456a4 4 0 0 1 0 8z"/><path d="m85.68 278.925a8 8 0 0 0 10.931-2.919 183.926 183.926 0 0 1 159.389-92.006 8 8 0 0 0 0-16 199.93 199.93 0 0 0 -173.239 99.994 8 8 0 0 0 2.919 10.931z"/></g></g></svg>