<?xml version="1.0"?>
<svg xmlns="http://www.w3.org/2000/svg" xmlns:xlink="http://www.w3.org/1999/xlink" xmlns:svgjs="http://svgjs.com/svgjs" version="1.1" width="512" height="512" x="0" y="0" viewBox="0 0 512.00007 512" style="enable-background:new 0 0 512 512" xml:space="preserve" class=""><g><link type="text/css" rel="stylesheet" id="dark-mode-custom-link"/><link type="text/css" rel="stylesheet" id="dark-mode-general-link"/><style lang="en" type="text/css" id="dark-mode-custom-style"/><style lang="en" type="text/css" id="dark-mode-native-style"/><path xmlns="http://www.w3.org/2000/svg" d="m511.691406 70.074219c-.511718-38.726563-32.371094-70.074219-71.460937-70.074219-34.921875 0-64.054688 25.027344-70.238281 57.980469-12.277344 5.398437-33.601563 14.03125-46.308594 16.132812-15.320313 2.53125-33.835938 3.292969-55.03125 2.257813-40.484375-1.976563-80.902344-15.078125-116.886719-37.898438-45.28125-28.710937-83.847656-35.429687-125.050781-21.785156-15.980469 5.292969-26.714844 20.234375-26.714844 37.1875 0 5.492188 3.003906 10.546875 7.832031 13.175781 5.519531 3 10.679688 5.59375 15.671875 8.097657 27.042969 13.574218 41.941406 21.050781 51.8125 62.253906 7.375 30.765625 20.277344 56.554687 38.355469 76.644531 11.296875 12.558594 24.65625 22.929687 39.847656 30.992187-9.289062 7.449219-15.25 18.859376-15.25 31.628907v25.304687c0 8.285156 6.714844 15 14.996094 15h178.640625c8.28125 0 15-6.714844 15-15v-25.304687c0-12.710938-5.90625-24.074219-15.125-31.527344 38.703125-22.566406 62.277344-60.949219 68.1875-111.085937 3.132812-26.574219.5-49.746094-1.335938-61.160157.078126-.613281.128907-1.238281.128907-1.871093 0-22.621094 18.601562-41.023438 41.46875-41.023438 22.863281 0 41.46875 18.402344 41.46875 41.023438 0 .714843.050781 1.429687.152343 2.136718.019532.148438 1.675782 15.019532-7.574218 25.699219-7.582032 8.75-20.976563 13.1875-39.808594 13.1875-8.285156 0-15 6.714844-15 15 0 8.28125 6.714844 14.996094 15 14.996094 27.925781 0 48.949219-7.921875 62.480469-23.542969 16.597656-19.15625 15.378906-42.445312 14.742187-48.425781zm-195.671875 149.539062c-12.609375 7.234375-26.90625 11.9375-42.5 13.976563-52.253906 6.828125-143.703125 2.503906-169.027343-103.179688-13.125-54.765625-38.335938-67.421875-67.53125-82.074218-1.148438-.574219-2.304688-1.15625-3.472657-1.746094.78125-.613282 1.675781-1.101563 2.65625-1.425782 32.304688-10.695312 62.078125-5.121093 99.554688 18.644532 40.363281 25.59375 85.828125 40.296875 131.488281 42.527344 23.320312 1.136718 43.972656.253906 61.394531-2.628907 12.511719-2.066406 29.285157-8.21875 41.988281-13.398437.976563 10.753906 1.441407 25.3125-.496093 41.070312-5.015625 40.839844-23.203125 70.527344-54.054688 88.234375zm-136.925781 46.433594h126.988281c5.96875 0 10.824219 4.765625 10.824219 10.621094v10.308593h-148.640625v-10.308593c0-5.855469 4.859375-10.621094 10.828125-10.621094zm0 0" fill="#6ba4d7" data-original="#000000" style="" class=""/></g></svg>
